<?xml version="1.0" encoding="utf-8"?>
<!-- Generator: Adobe Illustrator 18.0.0, SVG Export Plug-In . SVG Version: 6.00 Build 0)  -->
<!DOCTYPE svg PUBLIC "-//W3C//DTD SVG 1.1//EN" "http://www.w3.org/Graphics/SVG/1.1/DTD/svg11.dtd">
<svg version="1.1" id="Layer_1" xmlns="http://www.w3.org/2000/svg" xmlns:xlink="http://www.w3.org/1999/xlink" x="0px" y="0px"
	 viewBox="318 0 774 768" enable-background="new 318 0 774 768" xml:space="preserve">
<polygon fill="#DBA63D" points="987.6,384 1000.2,412.7 974.8,435.1 969,412.7 968.8,412.7 984.5,380.6 987.3,380.4 "/>
<polygon fill="#85483C" points="1000.2,412.7 996.9,458.4 997.7,504.1 970.7,477.8 969.5,476.7 972.3,475 987.6,444.6 "/>
<polygon fill="#BBA959" points="974.8,435.1 1000.2,412.7 987.6,444.6 972.3,475 969.5,476.7 968.1,475.3 945.5,461.1 945.5,460.7 
	948.4,458.4 "/>
<polygon fill="#C67F22" points="997.7,504.1 980.8,547.2 977.4,583.5 977.3,582.1 973.8,543.5 974,541.3 "/>
<polygon fill="#C78437" points="997.7,504.1 974,541.3 973.5,540.9 965.3,517.3 965.3,517.2 "/>
<polygon fill="#824237" points="997.7,504.1 965.3,517.2 970.7,477.8 970.7,477.8 "/>
<polygon fill="#CF982E" points="984.5,347.1 987.3,380.4 984.5,380.6 958.8,364 959.1,363.7 "/>
<polygon fill="#D7B03D" points="984.2,342.8 984.5,347.1 959.1,363.7 958.8,364 956.8,362.7 958,360.9 969.8,326.5 "/>
<polygon opacity="0.47" fill="#6A2F00" points="984.5,380.6 968.8,412.7 948.7,406.8 948.4,406.5 "/>
<polygon fill="#C76F35" points="984.5,380.6 948.4,406.5 937,392.6 958.8,364 "/>
<polygon opacity="0.47" fill="#00BF2C" points="984.2,342.5 984.2,342.8 969.8,326.5 976,311.4 "/>
<polygon fill="#728E6F" points="977.3,582.1 977.4,583.5 939.4,588.6 910.6,572.1 910.4,571.3 911.5,570.6 943.3,555.4 977.1,582.1 
	"/>
<polygon fill="#589676" points="977.4,583.5 919.9,646.1 917.3,648.2 916.3,647 939.4,588.6 "/>
<polygon fill="#9B805B" points="973.8,543.5 977.3,582.1 977.1,582.1 943.3,555.4 "/>
<polygon fill="#DCC658" points="976,311.4 969.8,326.5 942.7,305.6 941.4,304.3 945.1,303.4 944.4,301.8 946.1,301.1 960.5,287.6 
	975.7,310.4 "/>
<polygon fill="#DA8725" points="969,412.7 974.8,435.1 948.4,458.4 945.5,460.7 945.6,460.4 968.8,412.7 "/>
<polygon fill="#DD9731" points="973.5,540.9 974,541.3 973.8,543.5 943.3,555.4 902.5,537.3 903.3,536.8 951.8,522.7 952.1,522.5 
	952.6,524.3 "/>
<polygon fill="#D8803B" points="973.5,540.9 952.6,524.3 952.1,522.5 965.3,517.2 965.3,517.3 "/>
<polygon fill="#B76B3F" points="969.5,476.7 970.7,477.8 970.7,477.8 965.3,517.2 952.1,522.5 943.3,492.2 943.3,491.8 "/>
<polygon fill="#EFCF48" points="969.8,326.5 958,360.9 956.8,362.7 954,360.9 891.5,315.6 941.4,304.3 942.7,305.6 "/>
<polygon fill="#E69033" points="969.5,476.7 943.3,491.8 945.5,461.1 968.1,475.3 "/>
<polygon fill="#EAA04E" points="948.7,406.8 968.8,412.7 945.6,460.4 945.5,460.7 945.3,461 943.9,460.1 900.1,443.3 900,441.4 
	948.4,406.5 "/>
<polygon fill="#E8CF62" points="951.2,241.1 960.5,287.6 926.8,252 925.8,250.9 949.8,238.1 "/>
<polygon fill="#D5B93F" points="925.8,250.9 960.5,287.6 946.1,301.1 944.4,301.8 925.4,253.3 "/>
<polygon fill="#F2AF41" points="958.8,364 937,392.6 936.8,392.4 891.6,315.5 954,360.9 956.8,362.7 "/>
<polygon fill="#D5622E" points="943.3,492.2 952.1,522.5 951.8,522.7 903.3,536.8 902.5,537.3 902.3,537.2 902.1,537 901.5,534.7 
	900.1,498.2 900.2,498.2 900.3,498.3 942.2,492.5 943.3,491.8 "/>
<polygon fill="#D6CA76" points="949.8,238.1 925.8,250.9 930.3,217.1 949.3,237.2 "/>
<polygon fill="#F2E286" points="941,219.9 949.3,237.2 930.3,217.1 930.9,192.9 "/>
<polygon fill="#D47E2C" points="948.4,406.5 900,441.4 900,441.1 937,392.6 "/>
<polygon fill="#E47E25" points="945.5,461.1 943.3,491.8 942.2,492.5 900.3,498.3 900.2,498.2 945.3,461 "/>
<polygon fill="#E08E34" points="945.3,461 900.2,498.2 900.1,498.2 900,496.7 900.2,444.9 900.1,443.3 943.9,460.1 "/>
<polygon fill="#DBA537" points="944.4,301.8 945.1,303.4 941.4,304.3 893.1,251.9 925.4,253.3 "/>
<polygon fill="#E8741F" points="943.3,555.4 911.5,570.6 910.4,571.3 902.2,537.5 902.5,537.3 "/>
<polygon fill="#E28B23" points="893.1,251.9 941.4,304.3 891.5,315.6 "/>
<polygon fill="#776E6F" points="939.4,588.6 916.3,647 866.2,604.2 "/>
<polygon fill="#C59350" points="939.4,588.6 866.2,604.2 864.4,602.7 910.4,571.3 910.6,572.1 "/>
<polygon fill="#DCA439" points="936.8,392.4 937,392.6 900,441.1 891.6,315.5 "/>
<polygon fill="#C1BF88" points="911.5,162.4 930.9,192.9 865.8,196 907.8,162.4 866.4,150.4 866.2,147.2 871.3,96.5 871.4,96.4 
	900.5,129.5 "/>
<polygon fill="#D78C37" points="930.9,192.9 930.3,217.1 893.1,251.9 "/>
<polygon fill="#DCC553" points="930.9,192.9 893.1,251.9 865.9,196 "/>
<polygon fill="#DDC78A" points="930.3,217.1 925.8,250.9 925.4,253.3 893.1,251.9 "/>
<polygon fill="#21B1B7" points="917.3,648.2 841.3,708.7 840.9,708.8 868.9,650.6 916.3,647 "/>
<polygon fill="#5B7A85" points="916.3,647 868.9,650.6 864.3,602.6 "/>
<polygon fill="#E07C31" points="902.2,537.5 910.4,571.3 864.4,602.7 856.5,568 856.8,566.9 "/>
<path fill="#C5C065" d="M907.8,162.4c0,0-41.5,33.4-41.9,33.5l0.5-45.5L907.8,162.4z"/>
<polygon fill="#D5774D" points="902.1,537 902.2,537.5 856.8,566.9 869.5,517 "/>
<polygon fill="#DE8130" points="901.5,534.7 902.1,537 869.5,517 899.9,498.4 900.1,498.2 "/>
<polygon fill="#DFAC30" points="900.1,443.3 900.2,444.9 900,496.7 900.1,498.2 899.9,498.4 869.5,517 898.2,443.5 898.7,442.8 
	899,442.9 "/>
<polygon fill="#DAB437" points="900,441.1 899.5,441.8 898.3,442.6 897.4,442.4 816.5,356.9 816.1,355.3 816.5,355.2 891.6,315.5 
	"/>
<polygon fill="#E19234" points="898.7,442.8 898.2,443.5 869.5,517 837.3,487.1 897.9,442.9 898.3,442.6 "/>
<polygon fill="#D5C444" points="897.4,442.4 897.9,442.9 837.3,487.1 811.4,413.9 "/>
<polygon fill="#E0C93A" points="897.4,442.4 811.4,413.9 816.5,356.9 "/>
<polygon fill="#E4A134" points="893.1,251.9 891.5,315.6 806.3,303.9 "/>
<polygon fill="#D7C05A" points="893.1,251.9 831.7,241.4 831,241.5 831.1,241.1 865.9,196 "/>
<polygon fill="#E8AA35" points="891.6,315.5 816.5,355.2 816.1,355.3 805.8,304.5 805.4,303.7 806.3,303.9 "/>
<polygon fill="#C2B95B" points="893.1,251.9 806.3,303.9 831,241.5 831.7,241.4 "/>
<polygon fill="#699472" points="869.2,93.9 871.4,96.4 871.3,96.5 832.8,132.1 836.6,61.4 836.6,61.4 "/>
<polygon fill="#94977B" points="871.3,96.5 866.2,147.2 866.4,150.4 865,150 832.8,132.6 832.8,132.1 "/>
<polygon fill="#E36F50" points="869.5,517 856.8,566.9 855.9,567.5 817,589.7 785.1,549 785.9,547.5 "/>
<polygon fill="#E9AB36" points="869.5,517 785.9,547.5 788.8,541.8 837.3,487.1 "/>
<path fill="#A6A57C" d="M866.4,150.4c0,0-0.2,43.9-0.5,45.5l-25.8-5.7l0.1-0.6l-7.4-57.1L865,150L866.4,150.4z"/>
<polygon fill="#B7554E" points="868.9,650.6 817.2,619.7 864.3,602.6 "/>
<polygon fill="#7F6C86" points="868.9,650.6 840.9,708.8 839.8,709.1 814.6,677.1 815.1,676.6 817.2,619.7 "/>
<path fill="#DDC654" d="M831.1,241.1l9-50.8l25.8,5.7C865.9,196.2,831.1,241.1,831.1,241.1z"/>
<polygon fill="#C26F3F" points="856.5,568 864.4,602.7 817,589.7 855.9,567.5 856.8,566.9 "/>
<polygon fill="#DC3641" points="817,589.7 864.3,602.6 817.2,619.7 775.3,648.4 755.1,606.5 755.6,606.7 "/>
<polygon fill="#BFBC88" points="832.8,132.6 840.2,189.7 840.1,190.3 838.5,189.9 801.1,189.7 830.5,134.3 832.4,132.6 "/>
<polygon fill="#CBC350" points="840.1,190.3 831.1,241.1 799.7,190.6 801.1,189.7 838.5,189.9 "/>
<polygon fill="#7B8699" points="814.6,677.1 839.8,709.1 837.7,709.7 784.8,711.4 786.2,709.9 "/>
<polygon opacity="0.47" fill="#6A2F00" points="837.7,709.7 750.8,733.2 784.8,711.4 "/>
<polygon fill="#F36F56" points="811.4,413.9 837.3,487.1 762.9,500.4 763.5,499.5 "/>
<polygon fill="#E45251" points="837.3,487.1 788.8,541.8 785.9,547.5 784.3,548 762.3,501.2 762.9,500.4 "/>
<polygon fill="#2EB491" points="836.6,61.4 832.8,132.1 832.4,132.6 780.9,129.2 836.1,61.2 "/>
<polygon fill="#61A87D" points="836.1,61.2 780.9,129.2 799.4,51.2 799.5,51.1 799.6,51.2 "/>
<polygon fill="#A5A970" points="832.4,132.6 830.5,134.3 801.1,189.7 799.7,190.6 797.3,186.7 795.7,185 780.9,129.2 "/>
<polygon fill="#89B977" points="799.7,190.6 831.1,241.1 831,241.5 777,246.3 795.7,185 797.3,186.7 "/>
<polygon fill="#BFC259" points="831,241.5 806.3,303.9 805.4,303.7 777,246.3 "/>
<polygon fill="#BA3E5A" points="817.2,619.7 815.1,676.6 814.6,677.1 814.2,676.6 778.7,650.8 778.7,650.6 778.6,650.7 775.3,648.4 
	"/>
<polygon fill="#E84F3B" points="785.1,549 817,589.7 755.6,606.7 755.1,606.5 755,606.3 "/>
<polygon fill="#E9525B" points="816.5,356.9 811.4,413.9 746.7,366.6 814.9,355.5 "/>
<polygon fill="#F97E53" points="805.8,304.5 816.1,355.3 814.9,355.5 735.2,284.9 805.4,303.7 "/>
<polygon fill="#E96F52" points="814.9,355.5 746.7,366.6 735.2,284.9 "/>
<polygon fill="#AE4F69" points="814.6,677.1 786.2,709.9 785.5,709.3 778.7,650.8 814.2,676.6 "/>
<polygon fill="#D81C3E" points="811.4,413.9 763.5,499.5 762.3,501.2 762,500.6 761.8,500.1 734.7,438.1 "/>
<polygon fill="#DE4351" points="811.4,413.9 734.7,438.1 746.7,366.6 "/>
<polygon fill="#87BB7A" points="805.4,303.7 736.1,285.2 777,246.3 "/>
<polygon fill="#2EB491" points="799.4,51.2 781,129.6 755,76.2 "/>
<polygon fill="#33B48E" points="795.7,185 778.3,242.9 753,139.7 "/>
<path fill="#91AB74" d="M795.7,185L753,139.7l28.1-10.2C781.8,130.9,795.7,185,795.7,185z"/>
<polygon fill="#D05572" points="786.2,709.9 784.8,711.4 752.9,677 778.6,650.7 778.7,650.8 785.5,709.3 "/>
<polygon fill="#CA1F42" points="784.3,548 785.1,549 755,606.3 754.7,605.8 724.6,564.9 722.5,563.3 723.5,562.1 "/>
<polygon fill="#D17C8A" points="752.9,677 784.8,711.4 750.8,733.2 "/>
<polygon fill="#E04452" points="762.3,501.2 784.3,548 723.5,562.1 722.5,563.3 720.9,562.1 "/>
<polygon fill="#0092A2" points="755,76.2 781,129.6 728.3,102.1 728.2,101.9 "/>
<path fill="#06BFA4" d="M753,139.7l-24.7-37.6l52.7,27.4v0C780.9,130,753,139.7,753,139.7z"/>
<polygon fill="#59B68A" points="736.1,285.2 735.2,284.9 729.1,226.7 777.2,246.2 "/>
<polygon fill="#E63A56" points="778.6,650.7 752.9,677 753.9,608.3 754.9,606.4 755.1,606.5 775.3,648.4 "/>
<polygon fill="#5EA280" points="752.9,139.6 778.3,242.9 777,246.3 737.5,191.2 737.2,191.2 "/>
<polygon fill="#34B68B" points="737.5,191.2 777,246.3 729.1,226.7 737,191.8 737.2,191.2 "/>
<polygon fill="#895C71" points="762.3,501.2 720.9,562.1 698.8,545 758.4,501.2 762,500.6 "/>
<polygon fill="#914E63" points="762,500.6 758.4,501.2 698.8,545 700.8,445.9 700.8,445.7 700.8,445.7 702,445.7 761.8,500.1 "/>
<polygon fill="#BD3F59" points="734.7,438.1 761.8,500.1 702.9,446.8 "/>
<polygon fill="#047C81" points="734.7,39.8 755,76.2 708.7,57.6 708.4,57.5 709.2,55.9 "/>
<polygon fill="#0DB5B5" points="755,76.2 728.2,101.9 708.7,57.6 "/>
<polygon fill="#C16072" points="754.7,605.8 755,606.3 754.9,606.4 703.7,587.3 720.9,562.1 722.5,563.3 724.6,564.9 "/>
<polygon fill="#9D6E7B" points="754.9,606.4 753.9,608.3 701.6,655.8 701.6,586.9 703.7,587.3 "/>
<polygon fill="#E33755" points="753.9,608.3 752.9,677 701.7,655.3 "/>
<polygon fill="#E47C8E" points="752.9,677 750.8,733.2 717.8,721.4 717.4,720.3 717.5,720.2 "/>
<polygon fill="#D56C79" points="752.9,677 717.5,720.2 717.4,720.3 705.1,690.1 705,689.4 "/>
<polygon fill="#E65E70" points="752.9,677 705,689.4 702.5,690.1 701.7,655.3 "/>
<polygon fill="#00B3B4" points="752.9,139.6 737.2,191.2 705.4,192.2 "/>
<polygon fill="#24AEB6" points="753,139.7 705.4,193.2 699.4,106.5 "/>
<polygon fill="#DC4554" points="735.2,284.9 746.7,366.6 702.2,320.8 "/>
<polygon fill="#008999" points="728.3,102.1 753,139.7 699.4,106.6 728,102.2 728.2,101.9 "/>
<polygon fill="#525A5D" points="746.7,366.6 734.7,438.1 706.9,394 "/>
<polygon fill="#76515B" points="746.7,366.6 706.9,394 702.2,320.7 "/>
<polygon fill="#00A6AA" points="737.2,191.2 737,191.8 729.1,226.7 703.8,191.4 703.9,191.2 704.4,191.2 "/>
<polygon fill="#83C370" points="735.2,284.9 702.2,320.8 702.1,255.9 "/>
<polygon fill="#63B986" points="729.1,226.7 735.2,284.9 702.1,255.9 702.2,253.8 702.2,253.2 "/>
<polygon fill="#2A545F" points="706.9,394 734.7,438.1 702.9,446.8 "/>
<polygon fill="#00B6B7" points="703.8,191.4 729.1,226.7 702.2,253.2 "/>
<polygon fill="#009498" points="728.2,101.9 728,102.2 699.4,106.6 701.6,73.7 708.4,57.5 708.7,57.6 "/>
<polygon fill="#406576" points="723.3,562.9 704,587.7 698.8,545 "/>
<polygon fill="#64A87C" points="772,37.3 755,76.2 755,76.2 799.4,51.2 799.5,51.1 "/>
<polygon fill="#05968A" points="771.9,37.3 734.7,39.8 755,76.2 772,37.3 "/>
<polygon fill="#DBA63D" points="421.7,385 409.1,413.7 434.5,436.1 440.3,413.7 440.5,413.7 424.8,381.6 422,381.4 "/>
<polygon fill="#85483C" points="409.1,413.7 412.4,459.4 411.6,505.1 438.6,478.8 439.8,477.7 437,476 421.7,445.6 "/>
<polygon fill="#BBA959" points="434.5,436.1 409.1,413.7 421.7,445.6 437,476 439.8,477.7 441.2,476.3 463.8,462.1 463.8,461.7 
	460.9,459.4 "/>
<polygon fill="#C67F22" points="411.6,505.1 428.5,548.2 431.9,584.5 432,583.1 435.6,544.5 435.3,542.3 "/>
<polygon fill="#C78437" points="411.6,505.1 435.3,542.3 435.8,541.9 444,518.3 444,518.2 "/>
<polygon fill="#824237" points="411.6,505.1 444,518.2 438.7,478.8 438.6,478.8 "/>
<polygon fill="#CF982E" points="424.8,348.1 422,381.4 424.8,381.6 450.5,365 450.2,364.7 "/>
<polygon fill="#D7B03D" points="425.1,343.8 424.8,348.1 450.2,364.7 450.5,365 452.5,363.7 451.3,361.9 439.5,327.5 "/>
<polygon opacity="0.47" fill="#6A2F00" points="424.8,381.6 440.5,413.7 460.6,407.8 460.9,407.5 "/>
<polygon fill="#C76F35" points="424.8,381.6 460.9,407.5 472.3,393.6 450.5,365 "/>
<polygon opacity="0.47" fill="#00BF2C" points="425.1,343.5 425.1,343.8 439.5,327.5 433.3,312.4 "/>
<polygon fill="#728E6F" points="432,583.1 431.9,584.5 469.9,589.6 498.7,573.1 498.9,572.3 497.8,571.6 466,556.4 432.2,583.1 "/>
<polygon fill="#589676" points="431.9,584.5 489.4,647.1 492,649.2 493,648 469.9,589.6 "/>
<polygon fill="#9B805B" points="435.6,544.5 432,583.1 432.2,583.1 466,556.4 "/>
<polygon fill="#DCC658" points="433.3,312.4 439.5,327.5 466.6,306.6 467.9,305.3 464.2,304.4 464.9,302.8 463.2,302.1 448.8,288.6 
	433.6,311.4 "/>
<polygon fill="#DA8725" points="440.3,413.7 434.5,436.1 460.9,459.4 463.8,461.7 463.7,461.4 440.5,413.7 "/>
<polygon fill="#DD9731" points="435.8,541.9 435.3,542.3 435.6,544.5 466,556.4 506.8,538.3 506,537.8 457.5,523.7 457.2,523.5 
	456.7,525.3 "/>
<polygon fill="#D8803B" points="435.8,541.9 456.7,525.3 457.2,523.5 444,518.2 444,518.3 "/>
<polygon fill="#B76B3F" points="439.8,477.7 438.6,478.8 438.7,478.8 444,518.2 457.2,523.5 466,493.2 466,492.8 "/>
<polygon fill="#DCC658" points="439.5,327.5 451.3,361.9 452.5,363.7 455.3,361.9 517.9,319.6 517.8,316.6 467.9,305.3 466.6,306.6 
	"/>
<polygon fill="#E69033" points="439.8,477.7 466,492.8 463.8,462.1 441.2,476.3 "/>
<polygon fill="#EAA04E" points="460.6,407.8 440.5,413.7 463.7,461.4 463.8,461.7 464,462 465.4,461.1 509.2,444.3 509.3,442.4 
	460.9,407.5 "/>
<polygon fill="#D7B93C" points="458.1,242.1 448.8,288.6 483.9,254.3 459.5,239.1 "/>
<polygon fill="#D5B93F" points="448.8,288.6 463.2,302.1 464.9,302.8 483.9,254.3 "/>
<polygon fill="#F2AF41" points="450.5,365 472.3,393.6 472.5,393.4 517.6,321.8 518,321.9 518.1,319.7 517.9,319.6 455.3,361.9 
	452.5,363.7 "/>
<polygon fill="#D5622E" points="466,493.2 457.2,523.5 457.5,523.7 506,537.8 506.8,538.3 507,538.2 507.2,538 507.8,535.7 
	509.2,499.2 509.1,499.2 509,499.3 467.1,493.5 466,492.8 "/>
<polygon fill="#D6CA76" points="459.5,239.1 483.9,254.4 479,218.1 460,238.2 "/>
<polygon fill="#F2E286" points="468.3,220.9 460,238.2 479,218.1 478.4,193.9 "/>
<polygon fill="#D47E2C" points="460.9,407.5 509.3,442.4 509.3,442.1 472.3,393.6 "/>
<polygon fill="#E47E25" points="463.8,462.1 466,492.8 467.1,493.5 509,499.3 509.1,499.2 464,462 "/>
<polygon fill="#E08E34" points="464,462 509.1,499.2 509.2,499.2 509.3,497.7 509.1,445.9 509.2,444.3 465.4,461.1 "/>
<polygon fill="#DBA537" points="464.9,302.8 464.2,304.4 467.9,305.3 517.4,250.1 483.9,254.3 "/>
<polygon fill="#E8741F" points="466,556.4 497.8,571.6 498.9,572.3 507.1,538.5 506.8,538.3 "/>
<polygon fill="#E59029" points="517.4,250.1 467.9,305.3 517.8,316.6 "/>
<polygon fill="#776E6F" points="469.9,589.6 493,648 543.1,605.2 "/>
<polygon fill="#C59350" points="469.9,589.6 543.1,605.2 544.9,603.7 498.9,572.3 498.7,573.1 "/>
<polygon fill="#DCA439" points="472.5,393.4 472.3,393.6 509.3,442.1 518,321.9 517.6,321.8 "/>
<polygon fill="#C1BF88" points="497.8,163.4 478.4,193.9 540.4,193.5 501.5,163.4 542.9,151.4 543.1,148.2 538,97.5 537.9,97.4 
	508.8,130.5 "/>
<polygon fill="#D78C37" points="478.4,193.9 479,218.1 517.4,250.1 "/>
<polygon fill="#DCC553" points="478.4,193.9 517.4,250.1 540.4,193.5 "/>
<polygon fill="#DDC78A" points="479,218.1 483.9,254.3 517.4,250.1 "/>
<polygon fill="#21B1B7" points="492,649.2 568,709.7 568.4,709.8 540.4,651.6 493,648 "/>
<polygon fill="#5B7A85" points="493,648 540.4,651.6 544.9,603.7 "/>
<polygon fill="#E07C31" points="507.1,538.5 498.9,572.3 544.9,603.7 552.8,569 552.5,567.9 "/>
<polygon fill="#C5C065" points="501.5,163.4 540.4,193.5 542.9,151.4 "/>
<polygon fill="#D5774D" points="507.2,538 507.1,538.5 552.5,567.9 539.8,518 "/>
<polygon fill="#DE8130" points="507.8,535.7 507.2,538 539.8,518 509.4,499.4 509.2,499.2 "/>
<polygon fill="#DFAC30" points="509.2,444.3 509.1,445.9 509.3,497.7 509.2,499.2 509.4,499.4 539.8,518 511.1,444.5 510.6,443.8 
	510.3,443.9 "/>
<polygon fill="#DAB437" points="518,321.9 509.3,442.1 509.8,442.8 511,443.6 511.9,443.4 592.8,357.9 593.2,356.3 592.8,356.2 
	518.1,319.7 "/>
<polygon fill="#E19234" points="510.6,443.8 511.1,444.5 539.8,518 572,488.1 511.4,443.9 511,443.6 "/>
<polygon fill="#D5C444" points="511.9,443.4 511.4,443.9 572,488.1 597.9,414.9 "/>
<polygon fill="#E0C93A" points="511.9,443.4 597.9,414.9 592.8,357.9 "/>
<polygon fill="#E4A134" points="517.8,316.6 518.4,316.7 518.2,319.5 603,304.9 517.4,250.1 "/>
<polygon fill="#D6AA5B" points="540.4,193.5 517.4,250.1 577.6,242.4 578.3,242.5 578.2,242.1 "/>
<polygon fill="#E8AA35" points="518.2,319.5 518.1,319.7 592.8,356.2 593.2,356.3 603.5,305.5 603.9,304.7 603,304.9 "/>
<polygon fill="#C2B95B" points="517.4,250.1 603,304.9 578.3,242.5 577.6,242.4 "/>
<polygon fill="#699472" points="540.1,94.9 537.9,97.4 538,97.5 576.5,133.1 572.7,62.4 572.7,62.4 "/>
<polygon fill="#94977B" points="538,97.5 543.1,148.2 542.9,151.4 544.4,151 576.5,133.6 576.5,133.1 "/>
<polygon fill="#E36F50" points="539.8,518 552.5,567.9 553.4,568.5 592.3,590.7 624.2,550 623.4,548.5 "/>
<polygon fill="#E9AB36" points="539.8,518 623.4,548.5 620.5,542.8 572,488.1 "/>
<path fill="#A6A57C" d="M542.9,151.4l-2.5,42.1c1.5,0.5,28.8-2.2,28.8-2.2l-0.1-0.6l7.4-57.1L544.4,151L542.9,151.4z"/>
<polygon fill="#B7554E" points="544.9,603.7 540.4,651.6 592.1,620.7 549,605.2 "/>
<polygon fill="#7F6C86" points="540.4,651.6 568.4,709.8 569.5,710.1 594.7,678.1 594.2,677.6 592.1,620.7 "/>
<polygon fill="#DDC654" points="578.2,242.1 569.2,191.3 540.3,193.4 "/>
<polygon fill="#C26F3F" points="552.8,569 544.9,603.7 549,605.2 592.3,590.7 553.4,568.5 552.5,567.9 "/>
<polygon fill="#DC3641" points="592.3,590.7 549,605.2 592.1,620.7 634,649.4 654.2,607.5 653.7,607.7 "/>
<polygon fill="#BFBC88" points="576.5,133.6 569.1,190.7 569.2,191.3 570.8,190.9 608.2,190.7 578.8,135.3 576.9,133.6 "/>
<polygon fill="#CBC350" points="569.2,191.3 578.2,242.1 609.6,191.6 608.2,190.7 570.8,190.9 "/>
<polygon fill="#7B8699" points="594.7,678.1 569.5,710.1 571.6,710.7 624.5,712.4 623.1,710.9 "/>
<polygon opacity="0.47" fill="#6A2F00" points="571.6,710.7 658.5,734.2 624.5,712.4 "/>
<polygon fill="#F36F56" points="597.9,414.9 572,488.1 646.4,501.4 645.8,500.5 "/>
<polygon fill="#E45251" points="572,488.1 620.5,542.8 623.4,548.5 625,549 647,502.2 646.4,501.4 "/>
<polygon fill="#2EB491" points="572.7,62.4 576.5,133.1 576.9,133.6 626.3,128.1 573.2,62.2 "/>
<polygon fill="#61A87D" points="573.2,62.2 626.3,128.1 609.9,52.2 609.8,52.1 609.7,52.2 "/>
<polygon fill="#A5A970" points="576.9,133.6 578.8,135.3 608.2,190.7 609.6,191.6 612,187.7 613.6,186 626.3,128.1 "/>
<polygon fill="#89B977" points="609.6,191.6 578.2,242.1 578.3,242.5 632.3,247.3 613.6,186 612,187.7 "/>
<polygon fill="#BFC259" points="578.3,242.5 603,304.9 603.9,304.7 632.3,247.2 "/>
<polygon fill="#BA3E5A" points="592.1,620.7 594.2,677.6 594.7,678.1 595.1,677.6 630.6,651.8 630.6,651.6 630.7,651.7 634,649.4 
	"/>
<polygon fill="#E84F3B" points="624.2,550 592.3,590.7 653.7,607.7 654.2,607.5 654.3,607.3 "/>
<polygon fill="#E9525B" points="592.8,357.9 597.9,414.9 661.6,368.6 594.4,356.5 "/>
<polygon fill="#F97E53" points="603.5,305.5 593.2,356.3 594.4,356.5 674,286.9 673.2,286.2 603.9,304.7 "/>
<polygon fill="#E96F52" points="594.4,356.5 661.6,368.6 662.7,367.6 659.4,365.2 674,286.9 "/>
<polygon fill="#AE4F69" points="594.7,678.1 623.1,710.9 623.8,710.3 630.6,651.8 595.1,677.6 "/>
<polygon fill="#D81C3E" points="597.9,414.9 645.8,500.5 646.4,501.4 647.3,501.6 647.5,501.1 674.6,439.1 "/>
<polygon fill="#DE4351" points="597.9,414.9 674.6,439.1 661.6,368.6 "/>
<polygon fill="#87BB7A" points="603.9,304.7 673.2,286.2 632.3,247.3 "/>
<polygon fill="#2EB491" points="609.9,52.2 626.3,128.1 654.3,77.2 "/>
<polygon fill="#33B48E" points="613.6,186 631,243.9 656.4,140.7 "/>
<polygon fill="#91AB74" points="613.6,186 656.4,140.7 626.3,128.1 "/>
<polygon fill="#D05572" points="623.1,710.9 624.5,712.4 656.4,678 630.7,651.7 630.6,651.8 623.8,710.3 "/>
<polygon fill="#CA1F42" points="625,549 624.2,550 654.3,607.3 654.6,606.8 688.4,563.1 "/>
<polygon fill="#D17C8A" points="656.4,678 624.5,712.4 658.5,734.2 "/>
<polygon fill="#E04452" points="647,502.2 625,549 688.4,563.1 "/>
<polygon fill="#0092A2" points="654.3,77.2 626.3,128.1 681,103.1 681.1,102.9 "/>
<polygon fill="#06BFA4" points="656.4,140.7 681,103.1 626.3,128.1 "/>
<polygon fill="#59B68A" points="674,287 680.2,227.7 632.3,247.3 "/>
<polygon fill="#E63A56" points="630.7,651.7 656.4,678 655.4,609.3 654.4,607.4 654.2,607.5 634,649.4 "/>
<polygon fill="#5EA280" points="656.3,140.8 631,243.9 632.3,247.3 671.8,192.2 672.2,192.2 "/>
<polygon fill="#34B68B" points="671.8,192.2 632.3,247.3 680.2,227.7 672.3,192.8 672.2,192.2 "/>
<polygon fill="#A85B82" points="647,502.2 688.4,563.1 698.8,545 650.9,502.2 647.3,501.6 "/>
<polygon fill="#AF649C" points="647.3,501.6 650.9,502.2 698.8,545 702.2,446.5 647.5,501.1 "/>
<polygon fill="#7F3E71" points="674.6,439.1 647.5,501.1 702.9,446.8 "/>
<polygon fill="#047C81" points="674.6,40.8 654.3,77.2 694.3,57.4 "/>
<polygon fill="#0DB5B5" points="654.3,77.2 681.1,102.9 694.3,57.4 "/>
<polygon fill="#C16072" points="654.6,606.8 654.3,607.3 654.4,607.4 705.6,588.3 688.4,563.1 "/>
<polygon fill="#C17C91" points="654.4,607.4 655.4,609.3 701.7,655.3 702.5,589.4 "/>
<polygon fill="#EF5072" points="655.4,609.3 656.4,678 701.7,655.3 "/>
<polygon fill="#E47C8E" points="656.4,678 658.5,734.2 691.5,722.4 691.9,721.3 691.8,721.2 "/>
<polygon fill="#D56C79" points="656.4,678 691.8,721.2 691.9,721.3 704.2,691.1 704.3,690.4 "/>
<polygon fill="#FC6B8A" points="656.4,678 704.3,690.4 706.9,691.1 701.7,655.3 "/>
<polygon fill="#00B3B4" points="656.3,140.7 672.2,192.2 704.9,192.2 705.4,192.2 705.5,192 "/>
<polygon fill="#24B58C" points="656.3,140.7 705.5,192 699.4,106.6 "/>
<polygon fill="#DC4554" points="674,286.9 659.4,365.2 662.7,367.6 702.2,320.8 "/>
<polygon fill="#008999" points="681,103.1 656.4,140.7 699.4,106.6 681.3,103.2 681.1,102.9 "/>
<polygon fill="#563F7A" points="662.7,367.6 661.6,368.6 674.6,439.1 706.9,394 "/>
<polygon fill="#8B46DB" points="662.7,367.6 706.9,394 702.2,320.8 "/>
<polygon fill="#00A6AA" points="672.2,192.2 672.3,192.8 680.2,227.7 705.5,192.4 705.4,192.2 704.9,192.2 "/>
<polygon fill="#5DC6A3" points="674.1,285.9 674,286.9 702.2,320.8 704.2,255.3 676.8,285.2 "/>
<polygon fill="#5DC99A" points="680.2,227.7 674.1,285.9 676.8,285.2 704,255.5 "/>
<polygon fill="#644899" points="706.9,394 674.6,439.1 702.9,446.8 "/>
<polygon fill="#00B6B7" points="705.5,192.4 680.2,227.7 704,255.5 "/>
<polygon fill="#21C1C1" points="681.1,102.9 681.3,103.2 699.4,106.6 701.6,73.7 694.3,57.4 "/>
<polygon fill="#5D94A8" points="688.4,563.1 704.6,586.9 698.8,545 "/>
<polygon fill="#64A87C" points="637.3,38.3 654.3,77.2 654.3,77.2 609.9,52.2 609.8,52.1 "/>
<polygon fill="#05968A" points="637.4,38.3 674.6,40.8 654.3,77.2 637.3,38.3 "/>
</svg>
