<?xml version="1.0" encoding="utf-8"?>
<!-- Generator: Adobe Illustrator 18.0.0, SVG Export Plug-In . SVG Version: 6.00 Build 0)  -->
<!DOCTYPE svg PUBLIC "-//W3C//DTD SVG 1.1//EN" "http://www.w3.org/Graphics/SVG/1.1/DTD/svg11.dtd">
<svg version="1.1" id="Layer_1" xmlns="http://www.w3.org/2000/svg" xmlns:xlink="http://www.w3.org/1999/xlink" x="0px" y="0px"
	 viewBox="135.6 0 774.4 768" enable-background="new 135.6 0 774.4 768" xml:space="preserve">
<g>
	<g>
		
			<polygon fill="none" stroke="#000000" stroke-width="3" stroke-linecap="round" stroke-linejoin="round" stroke-miterlimit="10" points="
			523.2,73.1 514.3,55.9 494.9,39.8 457.7,37.3 430,51.2 393,61.4 360.4,93.9 329.1,129.5 318.1,162.4 298.7,192.9 288.5,219.9 
			278.4,241.1 269.1,287.6 253.9,310.4 245.4,342.5 242,384 229.3,412.7 232.7,458.4 231.9,504.1 248.8,547.2 252.2,583.5 
			309.7,646.1 388.3,708.7 478.8,733.2 511.8,721.4 524.5,690.1 521.9,654.6 523.6,582.7 521.1,540.4 522.8,445.9 524.2,397.7 
			522.8,319.7 524.2,253.8 525.9,191.2 520.2,104.9 		"/>
		
			<polyline fill="none" stroke="#000000" stroke-width="3" stroke-linecap="round" stroke-linejoin="round" stroke-miterlimit="10" points="
			477.4,139.9 525.9,191.2 500.5,226.7 453.7,249.2 432.3,193.4 443.9,132 430.2,51.2 474.6,76.2 501.6,102.2 520.2,106.2 
			480.2,135.9 432.3,186.7 398.5,241.1 361.3,197.4 321.8,162.4 364.6,150 396.8,132.6 443.6,132 477.4,139.9 492.6,191.7 
			500.5,226.7 524.2,253.8 497.1,284.2 423.3,303.9 338.1,318.6 275.6,360.9 245.1,380.6 331.7,442.9 392.3,487.1 471.2,501.2 
			520.5,542.4 505,564.9 474.8,605.8 454.3,648.4 415.4,676.6 389.2,709.8 360.7,650.6 365.2,602.7 373.1,568 360.1,517 
			331.4,443.5 270.5,363.7 242.9,345.6 259.8,326.5 286.8,305.6 340.4,252.6 397.9,241.4 451.5,249.5 494.3,285.9 522.8,319.7 
			481.9,367.6 418.2,413.9 330.5,442.9 285.7,460.1 261.5,475.3 231.9,504.1 277.8,522.7 326.3,536.8 373.7,567.5 412.6,589.7 
			474,606.7 523.6,586.9 466.1,499.5 418.2,413.9 413.1,356.9 423.8,304.5 449.2,250.9 477.9,140 501.3,102.1 514.3,55.9 
			474.6,76.2 		"/>
		
			<polyline fill="none" stroke="#000000" stroke-width="3" stroke-linecap="round" stroke-linejoin="round" stroke-miterlimit="10" points="
			494.9,39.8 474.6,76.2 443.9,132 393,60.5 396.8,132.6 389.4,189.7 398.5,241.1 423.3,303.9 339.7,252.1 298.7,192.9 360.4,196.7 
			391.1,189.9 428.5,189.7 399.1,134.3 358.3,96.5 363.4,147.2 360.6,193.5 336.5,251.9 304.2,253.3 284.5,303.4 338.6,315.7 
			329.3,444.9 329.5,496.7 328.1,534.7 319,572.1 290.2,588.6 313.3,647 365.2,602.7 412.4,619.7 414.5,676.6 444.8,711.4 
			476.7,677 478.8,733.2 444.8,711.4 388.5,709.5 		"/>
		
			<polyline fill="none" stroke="#000000" stroke-width="3" stroke-linecap="round" stroke-linejoin="round" stroke-miterlimit="10" points="
			253.2,310.4 259.8,326.5 271.6,360.9 		"/>
		
			<polyline fill="none" stroke="#000000" stroke-width="3" stroke-linecap="round" stroke-linejoin="round" stroke-miterlimit="10" points="
			506.1,562.1 445.2,548 360.1,517 329.7,498.4 281.2,458.4 229.3,412.7 242,444.6 257.2,475 287.4,492.5 329.3,498.3 		"/>
		
			<polyline fill="none" stroke="#000000" stroke-width="3" stroke-linecap="round" stroke-linejoin="round" stroke-miterlimit="10" points="
			298.7,192.9 299.2,217.1 303.8,250.9 		"/>
		
			<line fill="none" stroke="#000000" stroke-width="3" stroke-linecap="round" stroke-linejoin="round" stroke-miterlimit="10" x1="501.3" y1="102.1" x2="443.9" y2="132"/>
		
			<polyline fill="none" stroke="#000000" stroke-width="3" stroke-linecap="round" stroke-linejoin="round" stroke-miterlimit="10" points="
			500.5,226.7 494.3,285.9 413.1,356.9 331.7,442.9 		"/>
		
			<polyline fill="none" stroke="#000000" stroke-width="3" stroke-linecap="round" stroke-linejoin="round" stroke-miterlimit="10" points="
			526.4,191.2 492.1,191.2 449.2,250.9 		"/>
		
			<polyline fill="none" stroke="#000000" stroke-width="3" stroke-linecap="round" stroke-linejoin="round" stroke-miterlimit="10" points="
			494.3,285.9 479.6,364.3 523.6,397.5 494.9,438.1 		"/>
		
			<polyline fill="none" stroke="#000000" stroke-width="3" stroke-linecap="round" stroke-linejoin="round" stroke-miterlimit="10" points="
			467.8,500.1 521.9,445.7 494.9,438.1 418.2,413.9 392.3,487.1 360.1,517 327.3,537.2 286.3,555.4 255.8,543.5 252.2,583.5 
			290.2,588.6 366.9,605 412.6,589.7 445.2,548 467.8,500.1 494.9,438.1 481.9,367.6 413.1,355.2 338.1,318.6 336.5,251.9 
			299.2,217.1 279.5,238 303.8,250.9 269.1,287.6 283.5,301.1 		"/>
		
			<polyline fill="none" stroke="#000000" stroke-width="3" stroke-linecap="round" stroke-linejoin="round" stroke-miterlimit="10" points="
			231.9,504.1 255.6,541.3 277,524.4 286.3,492.2 284,460.4 245.1,380.6 		"/>
		
			<polyline fill="none" stroke="#000000" stroke-width="3" stroke-linecap="round" stroke-linejoin="round" stroke-miterlimit="10" points="
			258.9,477.8 264.3,517.3 256,541.1 		"/>
		
			<polyline fill="none" stroke="#000000" stroke-width="3" stroke-linecap="round" stroke-linejoin="round" stroke-miterlimit="10" points="
			444.1,709.3 450.9,650.6 476.7,677 475.7,608.3 440.7,541.8 392.3,487.1 		"/>
		
			<polyline fill="none" stroke="#000000" stroke-width="3" stroke-linecap="round" stroke-linejoin="round" stroke-miterlimit="10" points="
			475.7,608.3 521.9,654.6 476.7,677 512.1,720.2 		"/>
		
			<line fill="none" stroke="#000000" stroke-width="3" stroke-linecap="round" stroke-linejoin="round" stroke-miterlimit="10" x1="524.5" y1="690.1" x2="476.7" y2="677"/>
		
			<polyline fill="none" stroke="#000000" stroke-width="3" stroke-linecap="round" stroke-linejoin="round" stroke-miterlimit="10" points="
			252.5,582.1 286.3,555.4 318.1,570.6 365.2,602.7 		"/>
		
			<polyline fill="none" stroke="#000000" stroke-width="3" stroke-linecap="round" stroke-linejoin="round" stroke-miterlimit="10" points="
			313.3,647 360.7,650.6 412.4,619.7 454.3,648.4 		"/>
		
			<polyline fill="none" stroke="#000000" stroke-width="3" stroke-linecap="round" stroke-linejoin="round" stroke-miterlimit="10" points="
			254.7,435.3 260.6,412.7 280.9,406.8 292.8,392.4 337.9,320.8 		"/>
		<circle cx="430" cy="51.2" r="4.4"/>
		<circle cx="444.4" cy="130.9" r="4.4"/>
		<circle cx="473.7" cy="76.5" r="4.4"/>
		<circle cx="457.7" cy="37.3" r="4.4"/>
		<circle cx="493.4" cy="41.2" r="4.4"/>
		<circle cx="514.3" cy="55.9" r="4.4"/>
		<circle cx="521.9" cy="72.7" r="4.4"/>
		<circle cx="525.9" cy="190.2" r="4.4"/>
		<circle cx="523" cy="253.6" r="4.4"/>
		<circle cx="523.3" cy="320.4" r="4.4"/>
		<circle cx="523" cy="397.7" r="4.4"/>
		<circle cx="522.2" cy="445.6" r="4.4"/>
		<circle cx="519.7" cy="542" r="4.4"/>
		<circle cx="523.6" cy="586.9" r="4.4"/>
		<circle cx="521.9" cy="654.6" r="4.4"/>
		<circle cx="474" cy="606.7" r="4.4"/>
		<circle cx="445.2" cy="548" r="4.4"/>
		<circle cx="392.3" cy="487.1" r="4.4"/>
		<circle cx="417.5" cy="415.7" r="4.4"/>
		<circle cx="480.9" cy="365.8" r="4.4"/>
		<circle cx="468.6" cy="501.9" r="4.4"/>
		<circle cx="360.1" cy="517" r="4.4"/>
		<circle cx="330.5" cy="442.9" r="4.4"/>
		<circle cx="329.3" cy="498.3" r="4.4"/>
		<circle cx="326.3" cy="536.8" r="4.4"/>
		<circle cx="373.1" cy="568" r="4.4"/>
		<circle cx="411.1" cy="590.3" r="4.4"/>
		<circle cx="365.2" cy="602.7" r="4.4"/>
		<circle cx="411.6" cy="621.6" r="4.4"/>
		<circle cx="452.6" cy="651.6" r="4.4"/>
		<circle cx="476.7" cy="677" r="4.4"/>
		<circle cx="415.4" cy="676.6" r="4.4"/>
		<circle cx="444.1" cy="709.3" r="4.4"/>
		<circle cx="480.1" cy="733.2" r="4.4"/>
		<circle cx="511.8" cy="721.4" r="4.4"/>
		<circle cx="522.8" cy="689.7" r="4.4"/>
		<circle cx="506.3" cy="563.2" r="4.4"/>
		<circle cx="362.1" cy="651.2" r="4.4"/>
		<circle cx="390" cy="707.4" r="4.4"/>
		<circle cx="313.5" cy="648.2" r="4.4"/>
		<circle cx="251.3" cy="583.5" r="4.4"/>
		<circle cx="247.9" cy="545.5" r="4.4"/>
		<circle cx="229.8" cy="503.6" r="4.4"/>
		<circle cx="256.7" cy="541.8" r="4.4"/>
		<circle cx="262.7" cy="517.2" r="4.4"/>
		<circle cx="285.7" cy="555.2" r="4.4"/>
		<circle cx="292.7" cy="589.3" r="4.4"/>
		<circle cx="318.9" cy="572.3" r="4.4"/>
		<circle cx="287" cy="491.8" r="4.4"/>
		<circle cx="278.3" cy="523.5" r="4.4"/>
		<circle cx="258.4" cy="477.8" r="4.4"/>
		<circle cx="283.6" cy="460.9" r="4.4"/>
		<circle cx="229.3" cy="413.6" r="4.4"/>
		<circle cx="261.6" cy="414.6" r="4.4"/>
		<circle cx="254.2" cy="435.8" r="4.4"/>
		<circle cx="231.8" cy="459" r="4.4"/>
		<circle cx="280.8" cy="407.9" r="4.4"/>
		<circle cx="244.9" cy="382.3" r="4.4"/>
		<circle cx="271.1" cy="362.8" r="4.4"/>
		<circle cx="243.6" cy="346.4" r="4.4"/>
		<circle cx="293.1" cy="392" r="4.4"/>
		<circle cx="337.5" cy="318.4" r="4.4"/>
		<circle cx="285.3" cy="303.4" r="4.4"/>
		<circle cx="269.4" cy="287.8" r="4.4"/>
		<circle cx="252.5" cy="309.8" r="4.4"/>
		<circle cx="304.7" cy="252.9" r="4.4"/>
		<circle cx="280" cy="240.2" r="4.4"/>
		<circle cx="338.4" cy="253.3" r="4.4"/>
		<circle cx="398.8" cy="243" r="4.4"/>
		<circle cx="424.4" cy="303.4" r="4.4"/>
		<circle cx="451.9" cy="248.5" r="4.4"/>
		<circle cx="493.7" cy="286.5" r="4.4"/>
		<circle cx="499.2" cy="227.1" r="4.4"/>
		<circle cx="492.7" cy="192.2" r="4.4"/>
		<circle cx="477.5" cy="141.7" r="4.4"/>
		<circle cx="431.4" cy="189.9" r="4.4"/>
		<circle cx="501.1" cy="101.1" r="4.4"/>
		<circle cx="392.9" cy="61.4" r="4.4"/>
		<circle cx="359.5" cy="95" r="4.4"/>
		<circle cx="328.4" cy="129" r="4.4"/>
		<circle cx="320.2" cy="161.6" r="4.4"/>
		<circle cx="298.4" cy="194.6" r="4.4"/>
		<circle cx="298.2" cy="218.7" r="4.4"/>
		<circle cx="359.3" cy="196.7" r="4.4"/>
		<circle cx="389.4" cy="189.7" r="4.4"/>
		<circle cx="362.3" cy="151.2" r="4.4"/>
		<circle cx="397" cy="133.5" r="4.4"/>
		<circle cx="495.4" cy="436.5" r="4.4"/>
		<circle cx="413.2" cy="355.9" r="4.4"/>
	</g>
	
		<polyline fill="none" stroke="#000000" stroke-width="3" stroke-linecap="round" stroke-linejoin="round" stroke-miterlimit="10" points="
		522.2,73.2 531.2,55.9 556.7,39.8 593.9,37.3 621.6,51.2 658.6,61.4 691.2,93.9 722.5,129.5 733.5,162.4 752.9,192.9 763.1,219.9 
		773.2,241.1 782.5,287.6 797.7,310.4 806.2,342.5 809.6,384 822.2,412.7 818.9,458.4 819.7,504.1 802.8,547.2 799.4,583.5 
		741.9,646.1 663.3,708.7 572.8,733.2 539.8,721.4 527.1,690.1 	"/>
	
		<polyline fill="none" stroke="#000000" stroke-width="3" stroke-linecap="round" stroke-linejoin="round" stroke-miterlimit="10" points="
		574.2,139.9 525.7,191.2 551.1,226.7 597.9,249.2 619.3,193.4 607.7,132 621.4,51.2 577,76.2 550,102.2 521.1,106.3 571.4,135.9 
		619.3,186.7 653.1,241.1 690.3,197.4 729.8,162.4 686.9,150 654.8,132.6 608,132 574.2,139.9 559,191.7 551.1,226.7 522.8,254.6 
		554.5,284.2 628.3,303.9 713.4,318.6 776,360.9 806.5,380.6 719.9,442.9 659.3,487.1 580.4,501.2 519,543.4 546.6,564.9 
		576.7,605.8 597.3,648.4 636.2,676.6 662.4,709.8 690.9,650.6 686.4,602.7 678.5,568 691.5,517 720.2,443.5 781.1,363.7 
		808.7,345.6 791.8,326.5 764.7,305.6 711.2,252.6 653.7,241.4 600.1,249.5 557.3,285.9 523.3,320.4 569.7,367.6 633.4,413.9 
		721.1,442.9 765.9,460.1 790.1,475.3 819.7,504.1 773.8,522.7 725.3,536.8 677.9,567.5 639,589.7 577.6,606.7 525.7,587.3 
		585.5,499.5 633.4,413.9 638.5,356.9 627.8,304.5 602.4,250.9 573.6,140 550.3,102.1 530.7,57.6 577,76.2 	"/>
	
		<polyline fill="none" stroke="#000000" stroke-width="3" stroke-linecap="round" stroke-linejoin="round" stroke-miterlimit="10" points="
		556.7,39.8 577,76.2 607.7,132 658.6,60.5 654.8,132.6 662.2,189.7 653.1,241.1 628.3,303.9 711.9,252.1 752.9,192.9 691.2,196.7 
		660.5,189.9 623.1,189.7 652.5,134.3 693.3,96.5 688.2,147.2 691,193.5 715.1,251.9 747.4,253.3 767.1,303.4 713,315.7 
		722.3,444.9 722,496.7 723.5,534.7 732.6,572.1 761.4,588.6 738.3,647 686.4,602.7 639.2,619.7 637.1,676.6 606.8,711.4 574.9,677 
		572.8,733.2 606.8,711.4 663.1,709.5 	"/>
	
		<polyline fill="none" stroke="#000000" stroke-width="3" stroke-linecap="round" stroke-linejoin="round" stroke-miterlimit="10" points="
		798.4,310.4 791.8,326.5 780,360.9 	"/>
	
		<polyline fill="none" stroke="#000000" stroke-width="3" stroke-linecap="round" stroke-linejoin="round" stroke-miterlimit="10" points="
		545.5,562.1 606.3,548 691.5,517 721.9,498.4 770.4,458.4 822.2,412.7 809.6,444.6 794.3,475 764.2,492.5 722.3,498.3 	"/>
	
		<polyline fill="none" stroke="#000000" stroke-width="3" stroke-linecap="round" stroke-linejoin="round" stroke-miterlimit="10" points="
		752.9,192.9 752.3,217.1 747.8,250.9 	"/>
	
		<line fill="none" stroke="#000000" stroke-width="3" stroke-linecap="round" stroke-linejoin="round" stroke-miterlimit="10" x1="550.3" y1="102.1" x2="607.7" y2="132"/>
	
		<polyline fill="none" stroke="#000000" stroke-width="3" stroke-linecap="round" stroke-linejoin="round" stroke-miterlimit="10" points="
		551.1,226.7 557.3,285.9 638.5,356.9 719.9,442.9 	"/>
	
		<polyline fill="none" stroke="#000000" stroke-width="3" stroke-linecap="round" stroke-linejoin="round" stroke-miterlimit="10" points="
		525.2,191.2 559.5,191.2 602.4,250.9 	"/>
	
		<polyline fill="none" stroke="#000000" stroke-width="3" stroke-linecap="round" stroke-linejoin="round" stroke-miterlimit="10" points="
		557.3,285.9 571.9,364.3 524.2,397.7 556.7,438.1 	"/>
	
		<polyline fill="none" stroke="#000000" stroke-width="3" stroke-linecap="round" stroke-linejoin="round" stroke-miterlimit="10" points="
		583.8,500.1 524,445.7 556.7,438.1 633.4,413.9 659.3,487.1 691.5,517 724.3,537.2 765.3,555.4 795.7,543.5 799.4,583.5 
		761.4,588.6 684.7,605 639,589.7 606.3,548 583.8,500.1 556.7,438.1 569.7,367.6 638.5,355.2 713.4,318.6 715.1,251.9 752.3,217.1 
		772.1,238 747.8,250.9 782.5,287.6 768.1,301.1 	"/>
	
		<polyline fill="none" stroke="#000000" stroke-width="3" stroke-linecap="round" stroke-linejoin="round" stroke-miterlimit="10" points="
		819.7,504.1 796,541.3 774.6,524.4 765.3,492.2 767.6,460.4 806.5,380.6 	"/>
	
		<polyline fill="none" stroke="#000000" stroke-width="3" stroke-linecap="round" stroke-linejoin="round" stroke-miterlimit="10" points="
		792.6,477.8 787.3,517.3 795.6,541.1 	"/>
	
		<polyline fill="none" stroke="#000000" stroke-width="3" stroke-linecap="round" stroke-linejoin="round" stroke-miterlimit="10" points="
		607.5,709.3 600.7,650.6 574.9,677 575.9,608.3 610.8,541.8 659.3,487.1 	"/>
	
		<polyline fill="none" stroke="#000000" stroke-width="3" stroke-linecap="round" stroke-linejoin="round" stroke-miterlimit="10" points="
		575.9,608.3 521.9,654.6 574.9,677 539.5,720.2 	"/>
	
		<line fill="none" stroke="#000000" stroke-width="3" stroke-linecap="round" stroke-linejoin="round" stroke-miterlimit="10" x1="524.5" y1="690.1" x2="574.9" y2="677"/>
	
		<polyline fill="none" stroke="#000000" stroke-width="3" stroke-linecap="round" stroke-linejoin="round" stroke-miterlimit="10" points="
		799.1,582.1 765.3,555.4 733.5,570.6 686.4,602.7 	"/>
	
		<polyline fill="none" stroke="#000000" stroke-width="3" stroke-linecap="round" stroke-linejoin="round" stroke-miterlimit="10" points="
		738.3,647 690.9,650.6 639.2,619.7 597.3,648.4 	"/>
	
		<polyline fill="none" stroke="#000000" stroke-width="3" stroke-linecap="round" stroke-linejoin="round" stroke-miterlimit="10" points="
		796.9,435.3 791,412.7 770.7,406.8 758.8,392.4 713.7,320.8 	"/>
	<circle cx="621.6" cy="51.2" r="4.4"/>
	
		<circle fill="none" stroke="#000000" stroke-width="3" stroke-linecap="round" stroke-linejoin="round" stroke-miterlimit="10" cx="607.2" cy="130.9" r="4.4"/>
	<circle cx="577.9" cy="76.5" r="4.4"/>
	<circle cx="593.9" cy="37.3" r="4.4"/>
	<circle cx="558.1" cy="41.2" r="4.4"/>
	<circle cx="530.5" cy="56.2" r="4.4"/>
	<circle cx="577.6" cy="606.7" r="4.4"/>
	<circle cx="606.3" cy="548" r="4.4"/>
	<circle cx="659.3" cy="487.1" r="4.4"/>
	<circle cx="634.1" cy="415.7" r="4.4"/>
	<circle cx="570.7" cy="365.8" r="4.4"/>
	<circle cx="582.9" cy="501.9" r="4.4"/>
	<circle cx="691.5" cy="517" r="4.4"/>
	<circle cx="721.1" cy="442.9" r="4.4"/>
	<circle cx="722.3" cy="498.3" r="4.4"/>
	<circle cx="725.3" cy="536.8" r="4.4"/>
	<circle cx="678.5" cy="568" r="4.4"/>
	<circle cx="640.4" cy="590.3" r="4.4"/>
	<circle cx="686.4" cy="602.7" r="4.4"/>
	<circle cx="640" cy="621.6" r="4.4"/>
	<circle cx="599" cy="651.6" r="4.4"/>
	<circle cx="574.9" cy="677" r="4.4"/>
	<circle cx="636.2" cy="676.6" r="4.4"/>
	<circle cx="607.5" cy="709.3" r="4.4"/>
	<circle cx="571.5" cy="733.2" r="4.4"/>
	<circle cx="539.8" cy="721.4" r="4.4"/>
	<circle cx="545.3" cy="563.2" r="4.4"/>
	<circle cx="689.5" cy="651.2" r="4.4"/>
	<circle cx="661.6" cy="707.4" r="4.4"/>
	<circle cx="738.1" cy="648.2" r="4.4"/>
	<circle cx="800.3" cy="583.5" r="4.4"/>
	<circle cx="803.6" cy="545.5" r="4.4"/>
	<circle cx="821.8" cy="503.6" r="4.4"/>
	<circle cx="794.9" cy="541.8" r="4.4"/>
	<circle cx="788.8" cy="517.2" r="4.4"/>
	<circle cx="765.9" cy="555.2" r="4.4"/>
	<circle cx="758.9" cy="589.3" r="4.4"/>
	<circle cx="732.7" cy="572.3" r="4.4"/>
	<circle cx="764.6" cy="491.8" r="4.4"/>
	<circle cx="773.3" cy="523.5" r="4.4"/>
	<circle cx="793.1" cy="477.8" r="4.4"/>
	<circle cx="768" cy="460.9" r="4.4"/>
	<circle cx="822.3" cy="413.6" r="4.4"/>
	<circle cx="790" cy="414.6" r="4.4"/>
	<circle cx="797.4" cy="435.8" r="4.4"/>
	<circle cx="819.8" cy="459" r="4.4"/>
	<circle cx="770.7" cy="407.9" r="4.4"/>
	<circle cx="806.7" cy="382.3" r="4.4"/>
	<circle cx="780.5" cy="362.8" r="4.4"/>
	<circle cx="807.9" cy="346.4" r="4.4"/>
	<circle cx="758.5" cy="392" r="4.4"/>
	<circle cx="714.1" cy="318.4" r="4.4"/>
	<circle cx="766.3" cy="303.4" r="4.4"/>
	<circle cx="782.1" cy="287.8" r="4.4"/>
	<circle cx="799.1" cy="309.8" r="4.4"/>
	<circle cx="746.8" cy="252.9" r="4.4"/>
	<circle cx="771.6" cy="240.2" r="4.4"/>
	<circle cx="713.2" cy="253.3" r="4.4"/>
	<circle cx="652.8" cy="243" r="4.4"/>
	<circle cx="627.2" cy="303.4" r="4.4"/>
	
		<circle fill="none" stroke="#000000" stroke-width="3" stroke-linecap="round" stroke-linejoin="round" stroke-miterlimit="10" cx="599.7" cy="248.5" r="4.4"/>
	
		<circle fill="none" stroke="#000000" stroke-width="3" stroke-linecap="round" stroke-linejoin="round" stroke-miterlimit="10" cx="557.9" cy="286.5" r="4.4"/>
	<circle cx="552.4" cy="227.1" r="4.4"/>
	<circle cx="558.9" cy="192.2" r="4.4"/>
	<circle cx="574.1" cy="141.7" r="4.4"/>
	<circle cx="620.2" cy="189.9" r="4.4"/>
	<circle cx="550.5" cy="101.1" r="4.4"/>
	<circle cx="658.7" cy="61.4" r="4.4"/>
	<circle cx="692.1" cy="95" r="4.4"/>
	<circle cx="723.2" cy="129" r="4.4"/>
	<circle cx="731.4" cy="161.6" r="4.4"/>
	<circle cx="753.2" cy="194.6" r="4.4"/>
	<circle cx="753.4" cy="218.7" r="4.4"/>
	
		<circle fill="none" stroke="#000000" stroke-width="3" stroke-linecap="round" stroke-linejoin="round" stroke-miterlimit="10" cx="692.2" cy="196.7" r="4.4"/>
	<circle cx="662.2" cy="189.7" r="4.4"/>
	<circle cx="689.3" cy="151.2" r="4.4"/>
	<circle cx="654.6" cy="133.5" r="4.4"/>
	<circle cx="556.2" cy="436.5" r="4.4"/>
	<circle cx="638.4" cy="355.9" r="4.4"/>
</g>
</svg>
